<svg id="Layer_1" xmlns="http://www.w3.org/2000/svg" viewBox="0 0 90 84"><style>.st0{fill:#b1005a}.st1{fill:#172b4d}.st2{fill:#40b342}</style><path class="st0" d="M46 26.3v-1.6h-2v1.6c-8.7.5-15.3 8-14.8 16.7.5 7.9 6.8 14.3 14.8 14.8v1.6h2v-1.6c8.7-.5 15.3-8 14.8-16.7-.5-8-6.9-14.3-14.8-14.8zm5.9 10.5c.5 1.4.7 2.8.8 4.3H46v-3.6c1.9-.1 3.9-.5 5.7-1.2 0 .1.1.3.2.5zm-13.6-.6c1.8.7 3.7 1.1 5.7 1.2V41h-6.6c0-1.4.3-2.9.8-4.3 0-.1.1-.3.1-.5zm5.7-.8c-1.7-.1-3.3-.4-4.8-1 1.1-2.3 2.8-4.2 4.8-5.7v6.7zm0 7.6v3.6c-1.8.1-3.6.4-5.2 1-.7-1.5-1.1-3-1.3-4.6H44zm0 5.6v6c-1.7-1.5-3.1-3.3-4.3-5.2 1.4-.5 2.8-.7 4.3-.8zm2 4.7v-4.8c1.5.1 2.9.3 4.3.8-1.2 1.9-2.6 3.7-4.3 5.2v-1.2zm0-6.7V43h6.5c-.2 1.6-.6 3.2-1.3 4.6-1.6-.6-3.4-.9-5.2-1zm0-11.2v-6.7c2 1.5 3.7 3.5 4.8 5.7-1.5.6-3.1.9-4.8 1zm3.4-6.5c1.9.6 3.6 1.6 5.1 3-.5.6-1.2 1.1-1.8 1.5-.9-1.6-2-3.1-3.3-4.5zm-12 4.6c-.7-.4-1.3-.9-1.8-1.5 1.4-1.4 3.2-2.4 5.1-3-1.4 1.3-2.5 2.8-3.3 4.5zm-.9 1.8c-.1.2-.1.3-.2.5-.6 1.7-1 3.5-1 5.2h-4.1c.2-2.8 1.3-5.4 3-7.6.7.7 1.5 1.4 2.3 1.9zM35.4 43c.2 1.9.7 3.7 1.6 5.4-1 .6-2 1.3-2.8 2.1-1.7-2.2-2.8-4.8-3-7.6h4.2zm2.5 7.2c1.2 1.9 2.6 3.7 4.2 5.3-2.4-.5-4.7-1.7-6.5-3.5.7-.7 1.4-1.3 2.3-1.8zm14.2 0c.9.5 1.7 1.1 2.3 1.8-1.8 1.7-4.1 2.9-6.5 3.4 1.6-1.5 3-3.3 4.2-5.2zm.9-1.8c.8-1.7 1.4-3.6 1.6-5.4h4.2c-.2 2.8-1.3 5.4-3 7.6-.9-.9-1.8-1.6-2.8-2.2zm1.6-7.4c0-1.8-.4-3.6-1-5.2 0-.2-.1-.3-.2-.5.9-.5 1.6-1.1 2.3-1.9 1.7 2.2 2.8 4.8 3 7.6h-4.1z"/><path class="st1" d="M6 13h14V3H6v10zm2-8h10v6H8V5z"/><path class="st1" d="M3 20h9v1h2v-1h9c1.7 0 3-1.3 3-3v-3h-3V9h1V7h-1V0H3v14H0v3c0 1.7 1.3 3 3 3zM5 2h16v12H5V2zM2 16h22v1c0 .6-.4 1-1 1H3c-.6 0-1-.4-1-1v-1z"/><path class="st2" d="M70 13h14V3H70v10zm2-8h10v6H72V5z"/><path class="st2" d="M87 14V0H67v7h-1v2h1v5h-3v3c0 1.7 1.3 3 3 3h9v1h2v-1h9c1.7 0 3-1.3 3-3v-3h-3zM69 2h16v12H69V2zm19 15c0 .6-.4 1-1 1H67c-.6 0-1-.4-1-1v-1h22v1zM23 73h1v-2h-1v-7H3v14H0v3c0 1.7 1.3 3 3 3h20c1.7 0 3-1.3 3-3v-3h-3v-5zM5 66h16v12H5V66zm19 14v1c0 .6-.4 1-1 1H3c-.6 0-1-.4-1-1v-1h22z"/><path class="st2" d="M6 77h14V67H6v10zm2-8h10v6H8v-6z"/><path class="st1" d="M87 64H67v7h-1v2h1v5h-3v3c0 1.7 1.3 3 3 3h20c1.7 0 3-1.3 3-3v-3h-3V64zm-18 2h16v12H69V66zm19 14v1c0 .6-.4 1-1 1H67c-.6 0-1-.4-1-1v-1h22z"/><path class="st1" d="M70 77h14V67H70v10zm2-8h10v6H72v-6z"/><path class="st0" d="M76 35h2v2h-2zM76 31h2v2h-2zM76 23h2v2h-2zM76 27h2v2h-2zM76 57h2v2h-2zM76 49h2v2h-2zM76 61h2v2h-2zM76 53h2v2h-2zM73 42c0 1.8 1.2 3.4 3 3.9V47h2v-1.1c2.1-.6 3.4-2.7 2.9-4.9-.6-2.1-2.7-3.4-4.9-2.9-1.8.5-3 2.1-3 3.9zm4-2c1.1 0 2 .9 2 2s-.9 2-2 2-2-.9-2-2 .9-2 2-2zM38 7h2v2h-2zM34 7h2v2h-2zM30 7h2v2h-2zM26 7h2v2h-2zM50 7h2v2h-2zM54 7h2v2h-2zM58 7h2v2h-2zM62 7h2v2h-2zM44 16.7h2v2h-2zM44 12.7h2v2h-2zM44 20.7h2v2h-2zM45 12c2.2 0 4-1.8 4-4s-1.8-4-4-4-4 1.8-4 4 1.8 4 4 4zm0-6c1.1 0 2 .9 2 2s-.9 2-2 2-2-.9-2-2 .9-2 2-2zM30 71h2v2h-2zM26 71h2v2h-2zM34 71h2v2h-2zM38 71h2v2h-2zM62 71h2v2h-2zM58 71h2v2h-2zM50 71h2v2h-2zM54 71h2v2h-2zM44 65.3h2v2h-2zM44 61.3h2v2h-2zM45 68c-2.2 0-4 1.8-4 4s1.8 4 4 4 4-1.8 4-4-1.8-4-4-4zm0 6c-1.1 0-2-.9-2-2s.9-2 2-2 2 .9 2 2-.9 2-2 2zM12 31h2v2h-2zM12 35h2v2h-2zM12 27h2v2h-2zM12 23h2v2h-2zM12 61h2v2h-2zM12 53h2v2h-2zM14 45.9c2.1-.6 3.4-2.7 2.9-4.9-.6-2.1-2.7-3.4-4.9-2.9S8.6 40.8 9.1 43c.4 1.4 1.5 2.5 2.9 2.9V47h2v-1.1zM11 42c0-1.1.9-2 2-2s2 .9 2 2-.9 2-2 2-2-.9-2-2zM12 57h2v2h-2zM12 49h2v2h-2z"/></svg>