<?xml version="1.0" encoding="utf-8"?>
<!-- Generator: Adobe Illustrator 22.1.0, SVG Export Plug-In . SVG Version: 6.00 Build 0)  -->
<svg version="1.1" id="Layer_1" xmlns="http://www.w3.org/2000/svg" xmlns:xlink="http://www.w3.org/1999/xlink" x="0px" y="0px"
	 viewBox="0 0 1015.5 558.9" style="enable-background:new 0 0 1015.5 558.9;" xml:space="preserve">
<style type="text/css">
	.st0{opacity:0.2;}
	.st1{fill:none;stroke:#595959;stroke-width:0.63;stroke-linecap:round;stroke-linejoin:round;}
	.st2{fill:#595959;}
</style>
<title>landscape</title>
<g class="st0">
	<path class="st1" d="M871.7,389.8L552.2,554.6L871.7,389.8z"/>
	<path class="st1" d="M343.4,425.3l-339.6-66L343.4,425.3z"/>
	<path class="st1" d="M632.9,452.3l-289.5-27L632.9,452.3z"/>
	<path class="st1" d="M871.7,389.8l-238.8,62.5L871.7,389.8z"/>
	<path class="st1" d="M852.2,369.3l-219.3,83L852.2,369.3z"/>
	<path class="st1" d="M496.1,353.6l-222.2,58.2L496.1,353.6z"/>
	<path class="st1" d="M406.5,348.9L204.8,366L406.5,348.9z"/>
	<path class="st1" d="M686.6,391.5l-190.5-38L686.6,391.5z"/>
	<path class="st1" d="M480.9,554.6L343.4,425.3L480.9,554.6z"/>
	<path class="st1" d="M343.1,299L169,355L343.1,299z"/>
	<path class="st1" d="M295.5,234.4l-153.2,77.9L295.5,234.4z"/>
	<path class="st1" d="M574.6,323.3l-168.1,25.6L574.6,323.3z"/>
	<path class="st1" d="M852.2,369.3l-165.6,22.2L852.2,369.3z"/>
	<path class="st1" d="M975.9,262.3L849.6,369.6L975.9,262.3z"/>
	<path class="st1" d="M492.9,245l-149.8,54L492.9,245z"/>
	<path class="st1" d="M258.3,172.1l-137.4,61.4L258.3,172.1z"/>
	<path class="st1" d="M142.3,312.3L3.8,357L142.3,312.3z"/>
	<path class="st1" d="M430.4,180.5l-134.9,53.9L430.4,180.5z"/>
	<path class="st1" d="M840.3,228.3L717,302.5L840.3,228.3z"/>
	<path class="st1" d="M717,302.5l-142.4,20.8L717,302.5z"/>
	<path class="st1" d="M975.9,262.3l-135.6-34L975.9,262.3z"/>
	<path class="st1" d="M204.8,366l-138.9,5.4L204.8,366z"/>
	<path class="st1" d="M835.7,371.5L717,302.5L835.7,371.5z"/>
	<path class="st1" d="M948.3,152.1l-108,76.3L948.3,152.1z"/>
	<path class="st1" d="M623,222.9l-130.1,22L623,222.9z"/>
	<path class="st1" d="M686.6,391.5l-112-68.3L686.6,391.5z"/>
	<path class="st1" d="M229.2,152.3l-125,24.8L229.2,152.3z"/>
	<path class="st1" d="M381.3,146l-122.9,26.2L381.3,146z"/>
	<path class="st1" d="M717,302.5L623,222.9L717,302.5z"/>
	<path class="st1" d="M549.9,166.9l-119.5,13.7L549.9,166.9z"/>
	<path class="st1" d="M120.9,233.5L3.8,260.4L120.9,233.5z"/>
	<path class="st1" d="M737.2,188.2L623,222.9L737.2,188.2z"/>
	<path class="st1" d="M341.7,130.5l-112.5,21.8L341.7,130.5z"/>
	<path class="st1" d="M205.7,155.8l-114.4,5.6L205.7,155.8z"/>
	<path class="st1" d="M491.3,118.9l-110,27L491.3,118.9z"/>
	<path class="st1" d="M574.6,323.3L492.9,245L574.6,323.3z"/>
	<path class="st1" d="M840.3,228.3l-103.1-40.1L840.3,228.3z"/>
	<path class="st1" d="M948.3,152.1l-110-2.4L948.3,152.1z"/>
	<path class="st1" d="M443.4,92.8l-101.7,37.7L443.4,92.8z"/>
	<path class="st1" d="M838.3,149.7l-101.1,38.5L838.3,149.7z"/>
	<path class="st1" d="M656,151.5l-106.1,15.4L656,151.5z"/>
	<path class="st1" d="M309.2,130.3l-103.5,25.5L309.2,130.3z"/>
	<path class="st1" d="M104.1,177.1L3.8,154L104.1,177.1z"/>
	<path class="st1" d="M590.3,106.5l-99,12.4L590.3,106.5z"/>
	<path class="st1" d="M168.9,113.1L71.1,103L168.9,113.1z"/>
	<path class="st1" d="M750.8,144.7l-94.8,6.8L750.8,144.7z"/>
	<path class="st1" d="M536,80.4l-92.6,12.4L536,80.4z"/>
	<path class="st1" d="M91.4,161.4L3.8,128.9L91.4,161.4z"/>
	<path class="st1" d="M623,222.9l-73.1-56.1L623,222.9z"/>
	<path class="st1" d="M154.1,78.6l-91.2-9.8L154.1,78.6z"/>
	<path class="st1" d="M928.1,131.1l-89.7,18.6L928.1,131.1z"/>
	<path class="st1" d="M928.1,131.1"/>
	<path class="st1" d="M370.2,110.9L282,129.1L370.2,110.9z"/>
	<path class="st1" d="M258.7,113.2l-89.8-0.1L258.7,113.2z"/>
	<path class="st1" d="M492.9,245l-62.5-64.4L492.9,245z"/>
	<path class="st1" d="M496.1,353.6l-89.5-4.7L496.1,353.6z"/>
	<path class="st1" d="M679.7,108.6l-89.4-2.1L679.7,108.6z"/>
	<path class="st1" d="M737.2,188.2L656,151.5L737.2,188.2z"/>
	<path class="st1" d="M838.3,149.7l-87.6-5L838.3,149.7z"/>
	<path class="st1" d="M141,37.6l-85.3-4.2L141,37.6z"/>
	<path class="st1" d="M220.8,67.7L141,37.6L220.8,67.7z"/>
	<path class="st1" d="M341.4,94.6l-82.7,18.6L341.4,94.6z"/>
	<path class="st1" d="M620.4,75L536,80.4L620.4,75z"/>
	<path class="st1" d="M238.1,70.2l-84,8.4L238.1,70.2z"/>
	<path class="st1" d="M80.7,143.7L3.8,112.6L80.7,143.7z"/>
	<path class="st1" d="M760.6,123.3l-80.9-14.7L760.6,123.3z"/>
	<path class="st1" d="M142.3,312.3l-21.4-78.8L142.3,312.3z"/>
	<path class="st1" d="M282,129.1l-76.3,26.7L282,129.1z"/>
	<path class="st1" d="M406.5,348.9L343.1,299L406.5,348.9z"/>
	<path class="st1" d="M697.4,98.9l-77-23.9L697.4,98.9z"/>
	<path class="st1" d="M343.1,299l-47.6-64.6L343.1,299z"/>
	<path class="st1" d="M750.8,144.7l-71.1-36L750.8,144.7z"/>
	<path class="st1" d="M656,151.5l-65.7-44.9L656,151.5z"/>
	<path class="st1" d="M948.3,152.1"/>
	<path class="st1" d="M834.2,135.7l-65.9-41.2L834.2,135.7z"/>
	<path class="st1" d="M549.9,166.9l-58.6-47.9L549.9,166.9z"/>
	<path class="st1" d="M834.2,135.7l-73.6-12.4L834.2,135.7z"/>
	<path class="st1" d="M902.3,108.9l-68.2,26.7L902.3,108.9z"/>
	<path class="st1" d="M295.5,234.4l-37.2-62.3L295.5,234.4z"/>
	<path class="st1" d="M965.5,75.5l-63.1,33.4L965.5,75.5z"/>
	<path class="st1" d="M965.5,75.5l-71-5.9L965.5,75.5z"/>
	<path class="st1" d="M768.3,94.4l-70.9,4.4L768.3,94.4z"/>
	<path class="st1" d="M902.3,108.9l-68.8-13.4L902.3,108.9z"/>
	<path class="st1" d="M148.4,158.6l-67.6-14.9L148.4,158.6z"/>
	<path class="st1" d="M71.1,103L3.8,87L71.1,103z"/>
	<path class="st1" d="M679.7,108.6L620.4,75L679.7,108.6z"/>
	<path class="st1" d="M760.6,123.3l-63.2-24.5L760.6,123.3z"/>
	<path class="st1" d="M413.4,56.2l-53.3,41L413.4,56.2z"/>
	<path class="st1" d="M461.3,73.2l-57.6,34.3L461.3,73.2z"/>
	<path class="st1" d="M894.5,69.6l-62.1,23.5L894.5,69.6z"/>
	<path class="st1" d="M436.1,52.4l-55.6,36.2L436.1,52.4z"/>
	<path class="st1" d="M894.5,69.6l-61,25.9L894.5,69.6z"/>
	<path class="st1" d="M169,355l-64,14.9L169,355z"/>
	<path class="st1" d="M833.5,95.6l-65.3-1.1L833.5,95.6z"/>
	<path class="st1" d="M948.3,152.1"/>
	<path class="st1" d="M204.8,366l-59.4,20.8L204.8,366z"/>
	<path class="st1" d="M516.3,44.1l-55,29.1L516.3,44.1z"/>
	<path class="st1" d="M62.9,68.8L3.8,50.1L62.9,68.8z"/>
	<path class="st1" d="M546.6,53.7L494.5,86L546.6,53.7z"/>
	<path class="st1" d="M590.3,106.5L536,80.4L590.3,106.5z"/>
	<path class="st1" d="M833.5,95.6l-59.4-9.2L833.5,95.6z"/>
	<path class="st1" d="M430.4,180.5L381.3,146L430.4,180.5z"/>
	<path class="st1" d="M248.5,406.9L204.8,366L248.5,406.9z"/>
	<path class="st1" d="M464.3,25.6l-50.9,30.6L464.3,25.6z"/>
	<path class="st1" d="M120.9,233.5l-16.8-56.4L120.9,233.5z"/>
	<path class="st1" d="M832.4,93.1l-58.3-6.8L832.4,93.1z"/>
	<path class="st1" d="M294.9,84.1l-56.8-13.9L294.9,84.1z"/>
	<path class="st1" d="M397.3,109.9l-55.9-15.3L397.3,109.9z"/>
	<path class="st1" d="M636.7,44.3l-56.2,11.8L636.7,44.3z"/>
	<path class="st1" d="M600.8,34.8l-54.1,18.8L600.8,34.8z"/>
	<path class="st1" d="M392.9,68.1l-50.5,26.8L392.9,68.1z"/>
	<path class="st1" d="M958.6,118l-56.3-9L958.6,118z"/>
	<path class="st1" d="M282,129.1L229.3,150L282,129.1z"/>
	<path class="st1" d="M489,35.8l-52.9,16.6L489,35.8z"/>
	<path class="st1" d="M689.4,61.7l-52.6-17.4L689.4,61.7z"/>
	<path class="st1" d="M731.5,71.2l-54.5-7.9L731.5,71.2z"/>
	<path class="st1" d="M491.3,118.9l-47.9-26.1L491.3,118.9z"/>
	<path class="st1" d="M809,148l-48.4-24.7L809,148z"/>
	<path class="st1" d="M55.7,33.4L4,50.1L55.7,33.4z"/>
	<path class="st1" d="M568.4,31.2l-52.1,12.9L568.4,31.2z"/>
	<path class="st1" d="M965.4,75.5"/>
	<path class="st1" d="M722.2,90.9l-45.3-27.6L722.2,90.9z"/>
	<path class="st1" d="M782.6,81.7l-51.1-10.5L782.6,81.7z"/>
	<path class="st1" d="M774.1,86.3l-51.9,4.6L774.1,86.3z"/>
	<path class="st1" d="M55.7,33.4L3.8,35.6L55.7,33.4z"/>
	<path class="st1" d="M100.4,35.6L50,24.6L100.4,35.6z"/>
	<path class="st1" d="M539.3,33L489,35.8L539.3,33z"/>
	<path class="st1" d="M341.5,80.9l44-24.4L341.5,80.9z"/>
	<path class="st1" d="M169,355l-26.7-42.7L169,355z"/>
	<path class="st1" d="M831.5,87.7l-49-6L831.5,87.7z"/>
	<path class="st1" d="M512.8,27.1l-48.6-1.5L512.8,27.1z"/>
	<path class="st1" d="M830.9,78.4l-48.3,3.4L830.9,78.4z"/>
	<path class="st1" d="M258.7,113.2l-20.6-43L258.7,113.2z"/>
	<path class="st1" d="M295.3,78.1l46.2,2.8L295.3,78.1z"/>
	<path class="st1" d="M829.7,76.7l-38.3-26L829.7,76.7z"/>
	<path class="st1" d="M559.1,25.9l-46.2,1.2L559.1,25.9z"/>
	<path class="st1" d="M965.4,75.5"/>
	<path class="st1" d="M183.2,156.9l-14.3-43.8L183.2,156.9z"/>
	<path class="st1" d="M830.9,78.4l-45-5.5L830.9,78.4z"/>
	<path class="st1" d="M676.9,63.3l-40.2-19L676.9,63.3z"/>
	<path class="st1" d="M50,24.6L7.9,35.4L50,24.6z"/>
	<path class="st1" d="M676.9,63.3l-39.8,16.9L676.9,63.3z"/>
	<path class="st1" d="M731.5,71.2l-42.1-9.5L731.5,71.2z"/>
	<path class="st1" d="M154.1,78.6l-13.1-41L154.1,78.6z"/>
	<path class="st1" d="M381.3,146l-39.6-15.5L381.3,146z"/>
	<path class="st1" d="M716.8,38.3l-41.3,8.2L716.8,38.3z"/>
	<path class="st1" d="M80.7,143.7L71.1,103L80.7,143.7z"/>
	<path class="st1" d="M645.1,31.5l-41.5,4.1L645.1,31.5z"/>
	<path class="st1" d="M791.4,50.7l-40.4,10L791.4,50.7z"/>
	<path class="st1" d="M829.7,76.7l-41-6.6L829.7,76.7z"/>
	<path class="st1" d="M617.2,18.9l-40.9,5.3L617.2,18.9z"/>
	<path class="st1" d="M751,60.7l-34.2-22.4L751,60.7z"/>
	<path class="st1" d="M755.9,49.9l-39.1-11.6L755.9,49.9z"/>
	<path class="st1" d="M349.9,127.5l-40.7,2.9L349.9,127.5z"/>
	<path class="st1" d="M685.3,30.4l-40.2,1.1L685.3,30.4z"/>
	<path class="st1" d="M760.2,45.8l-36.5-16.6L760.2,45.8z"/>
	<path class="st1" d="M785.9,72.8L746,74.2L785.9,72.8z"/>
	<path class="st1" d="M751,60.7l-39.1,6.1L751,60.7z"/>
	<path class="st1" d="M656.3,16.7l-39.2,2.2L656.3,16.7z"/>
	<path class="st1" d="M872.5,142.6l-38.3-7L872.5,142.6z"/>
	<path class="st1" d="M788.7,70.1L751,60.7L788.7,70.1z"/>
	<path class="st1" d="M723.7,29.2l-38.4,1.2L723.7,29.2z"/>
	<path class="st1" d="M755.9,49.9l-32.2-20.6L755.9,49.9z"/>
	<path class="st1" d="M693.8,22.4l-37.4-5.7L693.8,22.4z"/>
	<path class="st1" d="M168.9,113.1l-14.8-34.5L168.9,113.1z"/>
	<path class="st1" d="M204.8,366L169,355L204.8,366z"/>
	<path class="st1" d="M636.7,44.3l-36-9.5L636.7,44.3z"/>
	<path class="st1" d="M764.2,87.2l-32.7-16L764.2,87.2z"/>
	<path class="st1" d="M722.2,90.9l-36,4.5L722.2,90.9z"/>
	<path class="st1" d="M62.9,68.8l-7.2-35.4L62.9,68.8z"/>
	<path class="st1" d="M705.6,65.4l-30.1-18.8L705.6,65.4z"/>
	<path class="st1" d="M791.4,50.7l-35.5-0.8L791.4,50.7z"/>
	<path class="st1" d="M258.3,172.1l-29.2-19.8L258.3,172.1z"/>
	<path class="st1" d="M864,81.1l-34.8-5.5L864,81.1z"/>
	<path class="st1" d="M71.1,103l-8.2-34.2L71.1,103z"/>
	<path class="st1" d="M580.5,56.1l-26.4,23.1L580.5,56.1z"/>
	<path class="st1" d="M357.2,84.4l-33,8.3L357.2,84.4z"/>
	<path class="st1" d="M580.5,56.1l-33.9-2.5L580.5,56.1z"/>
	<path class="st1" d="M675.5,46.5l-30.4-15L675.5,46.5z"/>
	<path class="st1" d="M370.2,110.9l-28.8-16.3L370.2,110.9z"/>
	<path class="st1" d="M461.3,73.2l-25.2-20.8L461.3,73.2z"/>
	<path class="st1" d="M600.8,34.8l-32.3-3.6L600.8,34.8z"/>
	<path class="st1" d="M716.8,38.3l-31.5-7.9L716.8,38.3z"/>
	<path class="st1" d="M341.7,130.5l-32.5-0.2L341.7,130.5z"/>
	<path class="st1" d="M685.3,30.4l-28.9-13.7L685.3,30.4z"/>
	<path class="st1" d="M546.6,53.7l-30.3-9.6L546.6,53.7z"/>
	<path class="st1" d="M385.6,56.5l31.7-2.6L385.6,56.5z"/>
	<path class="st1" d="M604.2,76l-23.7-19.9L604.2,76z"/>
	<path class="st1" d="M27.6,2.2l20.7,22.9L27.6,2.2z"/>
	<path class="st1" d="M723.7,29.2l-29.9-6.8L723.7,29.2z"/>
	<path class="st1" d="M645.1,31.5l-27.9-12.6L645.1,31.5z"/>
	<path class="st1" d="M403.2,107.7l-22.8-19.1L403.2,107.7z"/>
	<path class="st1" d="M568.4,31.2L539.3,33L568.4,31.2z"/>
	<path class="st1" d="M516.3,44.1L489,35.8L516.3,44.1z"/>
	<path class="st1" d="M485.8,87.1l-24.5-13.9L485.8,87.1z"/>
	<path class="st1" d="M282,129.1l-23.3-15.9L282,129.1z"/>
	<path class="st1" d="M601.8,35.1l-25.6-10.9L601.8,35.1z"/>
	<path class="st1" d="M30.7,29.5L27.6,2.2L30.7,29.5z"/>
	<path class="st1" d="M309.2,130.3l-27.2-1.3L309.2,130.3z"/>
	<path class="st1" d="M539.3,33l-26.4-5.9L539.3,33z"/>
	<path class="st1" d="M489,35.8l-24.7-10.3L489,35.8z"/>
	<path class="st1" d="M774.1,86.3l-25,9.3L774.1,86.3z"/>
	<path class="st1" d="M788.7,70.1l-25.3,3.5L788.7,70.1z"/>
	<path class="st1" d="M675.5,46.5l-25.1,2.3L675.5,46.5z"/>
	<path class="st1" d="M341.4,94.6l-24.8-2.8L341.4,94.6z"/>
	<path class="st1" d="M27.6,2.2L3.8,9.7L27.6,2.2z"/>
	<path class="st1" d="M413.4,56.2l-20.5,11.9L413.4,56.2z"/>
	<path class="st1" d="M229.2,152.3l-23.4,3.5L229.2,152.3z"/>
	<path class="st1" d="M853.4,85.1l-22.5-6.7L853.4,85.1z"/>
	<path class="st1" d="M316.6,91.8l-21.7-7.8L316.6,91.8z"/>
	<path class="st1" d="M436.1,52.4l-22.7,3.7L436.1,52.4z"/>
	<path class="st1" d="M853.7,85l-22.2,2.7L853.7,85z"/>
	<path class="st1" d="M831.5,87.7l-22,2.7L831.5,87.7z"/>
	<path class="st1" d="M380.5,88.6l-20.4,8.6L380.5,88.6z"/>
	<path class="st1" d="M380.5,88.6L363,100.5L380.5,88.6z"/>
	<path class="st1" d="M91.4,161.4l-10.6-17.7L91.4,161.4z"/>
	<path class="st1" d="M104.1,177.1l-12.8-15.7L104.1,177.1z"/>
	<path class="st1" d="M402.8,61.5l-17.3-5L402.8,61.5z"/>
	<path class="st1" d="M238.1,70.2l-17.3-2.5L238.1,70.2z"/>
	<path class="st1" d="M576.3,24.2l-17.2,1.7L576.3,24.2z"/>
	<path class="st1" d="M386.7,113.8l-16.5-2.9L386.7,113.8z"/>
	<path class="st1" d="M357.2,84.4l-15.7-3.5L357.2,84.4z"/>
	<path class="st1" d="M360.1,97.2l-14.7-1.5L360.1,97.2z"/>
	<path class="st1" d="M403.1,107.7l-14-0.1L403.1,107.7z"/>
	<path class="st1" d="M571.5,31.6l-12.4-5.7L571.5,31.6z"/>
	<path class="st1" d="M382.2,115.5l-12-4.6L382.2,115.5z"/>
	<path class="st1" d="M301.9,86.6l-6.6-8.5L301.9,86.6z"/>
	<path class="st1" d="M55.7,33.4L50,24.6L55.7,33.4z"/>
	<path class="st1" d="M366.9,81.9l-9.7,2.5L366.9,81.9z"/>
	<path class="st1" d="M286.8,82.1l8.5-4L286.8,82.1z"/>
	<path class="st1" d="M768.4,50.2l-8.3-4.3L768.4,50.2z"/>
	<path class="st1" d="M834.4,79.4l-4.7-2.7L834.4,79.4z"/>
	<path class="st1" d="M360.1,97.2l-4,1.4L360.1,97.2z"/>
	<path class="st1" d="M404.7,61.2l-1.9,0.3L404.7,61.2z"/>
	<path class="st1" d="M404.1,61.5l-1.4,0L404.1,61.5z"/>
	<path class="st1" d="M829.3,75.7l0.5,1L829.3,75.7z"/>
	<circle class="st2" cx="552.2" cy="554.6" r="4.3"/>
	<circle class="st2" cx="3.8" cy="359.3" r="3.8"/>
	<circle class="st2" cx="632.9" cy="452.3" r="4.3"/>
	<circle class="st2" cx="273.8" cy="411.8" r="4.3"/>
	<circle class="st2" cx="343.4" cy="425.3" r="4.3"/>
	<circle class="st2" cx="480.9" cy="554.6" r="4.3"/>
	<circle class="st2" cx="852.2" cy="369.3" r="4.3"/>
	<circle class="st2" cx="120.9" cy="233.5" r="3.8"/>
	<circle class="st2" cx="871.7" cy="389.8" r="4.3"/>
	<circle class="st2" cx="65.9" cy="371.4" r="4.3"/>
	<circle class="st2" cx="835.7" cy="371.5" r="4.3"/>
	<circle class="st2" cx="686.6" cy="391.5" r="4.3"/>
	<circle class="st2" cx="717" cy="302.5" r="4.3"/>
	<circle class="st2" cx="3.8" cy="260.4" r="3.8"/>
	<circle class="st2" cx="574.6" cy="323.3" r="4.3"/>
	<circle class="st2" cx="840.3" cy="228.3" r="4.3"/>
	<circle class="st2" cx="3.8" cy="154" r="3.3"/>
	<circle class="st2" cx="3.8" cy="128.9" r="3.3"/>
	<circle class="st2" cx="623" cy="222.9" r="4.3"/>
	<circle class="st2" cx="928.1" cy="131.1" r="3.8"/>
	<circle class="st2" cx="492.9" cy="245" r="4.3"/>
	<circle class="st2" cx="496" cy="353.5" r="4.3"/>
	<circle class="st2" cx="737.2" cy="188.2" r="4.3"/>
	<circle class="st2" cx="838.3" cy="149.7" r="3.8"/>
	<circle class="st2" cx="3.8" cy="112.6" r="3.3"/>
	<circle class="st2" cx="406.5" cy="348.9" r="4.3"/>
	<circle class="st2" cx="343.1" cy="299" r="4.3"/>
	<circle class="st2" cx="750.8" cy="144.7" r="3.8"/>
	<circle class="st2" cx="656" cy="151.5" r="3.8"/>
	<circle class="st2" cx="549.9" cy="166.8" r="3.8"/>
	<circle class="st2" cx="295.5" cy="234.4" r="3.8"/>
	<circle class="st2" cx="148.4" cy="158.6" r="3.3"/>
	<circle class="st2" cx="3.8" cy="87" r="3.3"/>
	<circle class="st2" cx="620.4" cy="75" r="3.3"/>
	<circle class="st2" cx="679.7" cy="108.6" r="3.8"/>
	<circle class="st2" cx="697.4" cy="98.9" r="3.3"/>
	<circle class="st2" cx="105" cy="369.9" r="4.3"/>
	<circle class="st2" cx="768.3" cy="94.4" r="4.3"/>
	<circle class="st2" cx="948.3" cy="152.1" r="3.8"/>
	<circle class="st2" cx="145.4" cy="386.8" r="4.3"/>
	<circle class="st2" cx="204.8" cy="366" r="4.3"/>
	<circle class="st2" cx="494.5" cy="85.9" r="3.3"/>
	<circle class="st2" cx="536" cy="80.4" r="3.3"/>
	<circle class="st2" cx="590.3" cy="106.6" r="3.8"/>
	<circle class="st2" cx="833.5" cy="95.6" r="3.3"/>
	<circle class="st2" cx="430.4" cy="180.5" r="3.8"/>
	<circle class="st2" cx="248.5" cy="406.9" r="4.3"/>
	<circle class="st2" cx="341.4" cy="94.6" r="2.2"/>
	<circle class="st2" cx="894.5" cy="69.6" r="2.2"/>
	<circle class="st2" cx="902.3" cy="108.9" r="3.8"/>
	<circle class="st2" cx="958.6" cy="117.9" r="3.8"/>
	<circle class="st2" cx="229.3" cy="150" r="3.3"/>
	<circle class="st2" cx="443.4" cy="92.8" r="3.3"/>
	<circle class="st2" cx="491.3" cy="118.9" r="3.8"/>
	<circle class="st2" cx="760.6" cy="123.3" r="3.8"/>
	<circle class="st2" cx="809" cy="148" r="3.8"/>
	<circle class="st2" cx="4" cy="50.1" r="2.2"/>
	<circle class="st2" cx="3.8" cy="35.6" r="2.2"/>
	<circle class="st2" cx="100.4" cy="35.6" r="2.2"/>
	<circle class="st2" cx="142.3" cy="312.3" r="3.8"/>
	<circle class="st2" cx="782.6" cy="81.7" r="2.2"/>
	<circle class="st2" cx="965.5" cy="75.5" r="2.2"/>
	<circle class="st2" cx="183.2" cy="156.9" r="3.3"/>
	<circle class="st2" cx="637.1" cy="80.1" r="3.3"/>
	<circle class="st2" cx="676.9" cy="63.3" r="2.2"/>
	<circle class="st2" cx="689.4" cy="61.7" r="2.2"/>
	<circle class="st2" cx="141" cy="37.6" r="2.2"/>
	<circle class="st2" cx="381.3" cy="146" r="3.8"/>
	<circle class="st2" cx="603.6" cy="35.6" r="2.2"/>
	<circle class="st2" cx="349.9" cy="127.5" r="3.3"/>
	<circle class="st2" cx="746" cy="74.2" r="2.2"/>
	<circle class="st2" cx="712" cy="66.8" r="2.2"/>
	<circle class="st2" cx="834.2" cy="135.7" r="3.8"/>
	<circle class="st2" cx="872.5" cy="142.6" r="3.8"/>
	<circle class="st2" cx="751" cy="60.7" r="2.2"/>
	<circle class="st2" cx="154.1" cy="78.6" r="2.2"/>
	<circle class="st2" cx="168.9" cy="113.1" r="3.3"/>
	<circle class="st2" cx="169" cy="355" r="4.3"/>
	<circle class="st2" cx="636.7" cy="44.3" r="2.2"/>
	<circle class="st2" cx="731.5" cy="71.2" r="2.2"/>
	<circle class="st2" cx="764.2" cy="87.2" r="2.2"/>
	<circle class="st2" cx="686.2" cy="95.4" r="3.3"/>
	<circle class="st2" cx="722.2" cy="90.9" r="3.3"/>
	<circle class="st2" cx="975.9" cy="262.3" r="4.3"/>
	<circle class="st2" cx="755.9" cy="49.9" r="2.2"/>
	<circle class="st2" cx="791.4" cy="50.7" r="2.2"/>
	<circle class="st2" cx="258.3" cy="172.1" r="3.8"/>
	<circle class="st2" cx="62.9" cy="68.8" r="2.2"/>
	<circle class="st2" cx="71.1" cy="103" r="3.3"/>
	<circle class="st2" cx="554.2" cy="79.2" r="3.3"/>
	<circle class="st2" cx="863.8" cy="81.2" r="2.2"/>
	<circle class="st2" cx="324.2" cy="92.7" r="2.2"/>
	<circle class="st2" cx="716.8" cy="38.3" r="2.2"/>
	<circle class="st2" cx="341.6" cy="130.5" r="3.3"/>
	<circle class="st2" cx="656.3" cy="16.7" r="2.2"/>
	<circle class="st2" cx="685.3" cy="30.4" r="2.2"/>
	<circle class="st2" cx="546.6" cy="53.7" r="2.2"/>
	<circle class="st2" cx="417.2" cy="53.9" r="2.2"/>
	<circle class="st2" cx="604.2" cy="76" r="3.3"/>
	<circle class="st2" cx="48.3" cy="25" r="2.2"/>
	<circle class="st2" cx="693.8" cy="22.4" r="2.2"/>
	<circle class="st2" cx="723.7" cy="29.2" r="2.2"/>
	<circle class="st2" cx="617.2" cy="18.9" r="2.2"/>
	<circle class="st2" cx="645.1" cy="31.5" r="2.2"/>
	<circle class="st2" cx="516.3" cy="44.1" r="2.2"/>
	<circle class="st2" cx="461.3" cy="73.2" r="2.2"/>
	<circle class="st2" cx="485.8" cy="87.1" r="3.3"/>
	<circle class="st2" cx="258.7" cy="113.2" r="3.3"/>
	<circle class="st2" cx="30.7" cy="29.5" r="2.2"/>
	<circle class="st2" cx="282" cy="129.1" r="3.3"/>
	<circle class="st2" cx="309.2" cy="130.3" r="3.3"/>
	<path class="st2" d="M512.8,24.9c1.2,0,2.2,1,2.2,2.2s-1,2.2-2.2,2.2c-1.2,0-2.2-1-2.2-2.2S511.6,24.9,512.8,24.9z"/>
	<circle class="st2" cx="539.3" cy="33" r="2.2"/>
	<circle class="st2" cx="464.3" cy="25.6" r="2.2"/>
	<circle class="st2" cx="489" cy="35.8" r="2.2"/>
	<circle class="st2" cx="749.1" cy="95.6" r="3.3"/>
	<circle class="st2" cx="774.1" cy="86.3" r="2.2"/>
	<circle class="st2" cx="763.4" cy="73.6" r="2.2"/>
	<circle class="st2" cx="650.4" cy="48.8" r="2.2"/>
	<circle class="st2" cx="3.8" cy="9.6" r="2.2"/>
	<circle class="st2" cx="27.5" cy="2.2" r="2.2"/>
	<circle class="st2" cx="392.9" cy="68.1" r="2.2"/>
	<circle class="st2" cx="205.7" cy="155.8" r="3.3"/>
	<circle class="st2" cx="229.1" cy="152.3" r="3.3"/>
	<circle class="st2" cx="316.6" cy="91.8" r="2.2"/>
	<circle class="st2" cx="436.1" cy="52.4" r="2.2"/>
	<circle class="st2" cx="853.7" cy="85" r="2.2"/>
	<circle class="st2" cx="809.5" cy="90.4" r="3.3"/>
	<circle class="st2" cx="831.5" cy="87.7" r="3.3"/>
	<circle class="st2" cx="363" cy="100.5" r="2.2"/>
	<circle class="st2" cx="380.5" cy="88.6" r="2.2"/>
	<circle class="st2" cx="80.7" cy="143.7" r="3.3"/>
	<circle class="st2" cx="91.4" cy="161.4" r="3.3"/>
	<circle class="st2" cx="104.1" cy="177.1" r="3.3"/>
	<circle class="st2" cx="385.5" cy="56.5" r="2.2"/>
	<circle class="st2" cx="220.8" cy="67.7" r="2.2"/>
	<circle class="st2" cx="238.1" cy="70.2" r="2.2"/>
	<circle class="st2" cx="341.5" cy="80.8" r="2.2"/>
	<circle class="st2" cx="788.7" cy="70.1" r="2.2"/>
	<circle class="st2" cx="803.5" cy="75" r="2.2"/>
	<circle class="st2" cx="389.1" cy="107.6" r="3.3"/>
	<circle class="st2" cx="403.1" cy="107.7" r="3.3"/>
	<circle class="st2" cx="559.1" cy="25.9" r="2.2"/>
	<circle class="st2" cx="571.5" cy="31.6" r="2.2"/>
	<circle class="st2" cx="370.2" cy="110.9" r="3.3"/>
	<circle class="st2" cx="382.2" cy="115.5" r="3.3"/>
	<circle class="st2" cx="576.3" cy="24.2" r="2.2"/>
	<circle class="st2" cx="301.9" cy="86.6" r="2.2"/>
	<circle class="st2" cx="55.7" cy="33.4" r="2.2"/>
	<circle class="st2" cx="357.2" cy="84.4" r="2.2"/>
	<circle class="st2" cx="366.9" cy="81.8" r="2.2"/>
	<circle class="st2" cx="295.3" cy="78.1" r="2.2"/>
	<circle class="st2" cx="286.8" cy="82.1" r="2.2"/>
	<circle class="st2" cx="768.4" cy="50.2" r="2.2"/>
	<circle class="st2" cx="834.4" cy="79.4" r="2.2"/>
	<circle class="st2" cx="404.7" cy="61.2" r="2.2"/>
	<circle class="st2" cx="829.3" cy="75.7" r="2.2"/>
</g>
</svg>
